<svg xmlns="http://www.w3.org/2000/svg" xmlns:xlink="http://www.w3.org/1999/xlink" width="16" height="16" viewBox="0 0 16 16">
  <defs>
    <clipPath id="clip-path">
      <rect id="Rectangle_2519" data-name="Rectangle 2519" width="16" height="16" transform="translate(972 60)" fill="#fff" stroke="#707070" stroke-width="1"/>
    </clipPath>
  </defs>
  <g id="Mask_Group_267" data-name="Mask Group 267" transform="translate(-972 -60)" clip-path="url(#clip-path)">
    <g id="lifesaver" transform="translate(972 60)">
      <g id="Group_49157" data-name="Group 49157">
        <path id="Path_27178" data-name="Path 27178" d="M8,0a8,8,0,1,0,8,8A8.016,8.016,0,0,0,8,0Zm6.24,4.7L11.655,5.845a4.372,4.372,0,0,0-1.5-1.5L11.3,1.76A7.112,7.112,0,0,1,14.24,4.7ZM11.313,8A3.357,3.357,0,0,1,8,11.313,3.357,3.357,0,0,1,4.688,8,3.357,3.357,0,0,1,8,4.688,3.357,3.357,0,0,1,11.313,8ZM8,.938a7.028,7.028,0,0,1,2.449.438L9.3,3.956a4.21,4.21,0,0,0-2.6,0L5.551,1.375A7.029,7.029,0,0,1,8,.938ZM4.7,1.76,5.845,4.345a4.372,4.372,0,0,0-1.5,1.5L1.76,4.7A7.112,7.112,0,0,1,4.7,1.76ZM.938,8a7.029,7.029,0,0,1,.438-2.449L3.956,6.7a4.21,4.21,0,0,0,0,2.6L1.375,10.449A7.029,7.029,0,0,1,.938,8Zm.822,3.3,2.585-1.149a4.372,4.372,0,0,0,1.5,1.5L4.7,14.24A7.112,7.112,0,0,1,1.76,11.3ZM8,15.063a7.029,7.029,0,0,1-2.449-.438L6.7,12.044a4.21,4.21,0,0,0,2.6,0l1.147,2.581A7.028,7.028,0,0,1,8,15.063Zm3.3-.822-1.149-2.585a4.373,4.373,0,0,0,1.5-1.5L14.24,11.3A7.112,7.112,0,0,1,11.3,14.24Zm.74-4.939a4.21,4.21,0,0,0,0-2.6l2.581-1.147a7.065,7.065,0,0,1,0,4.9Z"/>
      </g>
    </g>
  </g>
</svg>
