<svg xmlns="http://www.w3.org/2000/svg" xmlns:xlink="http://www.w3.org/1999/xlink" width="16" height="16" viewBox="0 0 16 16"><defs><style>.a{fill:url(#a);}.b{clip-path:url(#b);}</style><linearGradient id="a" x1="0.5" x2="0.5" y2="1" gradientUnits="objectBoundingBox"><stop offset="0" stop-color="#7d7aff"/><stop offset="1" stop-color="#5e5ce6"/></linearGradient><clipPath id="b"><rect class="a" width="16" height="16" transform="translate(16 12)"/></clipPath></defs><g class="b" transform="translate(-16 -12)"><g transform="translate(16 12)"><path class="a" d="M15.731,7.153,8.553.611a.817.817,0,0,0-1.105,0L.269,7.153A.82.82,0,0,0,.821,8.58H1.968v6.554a.471.471,0,0,0,.471.471H6.373a.471.471,0,0,0,.471-.471V11.154H9.156v3.979a.471.471,0,0,0,.471.471h3.935a.471.471,0,0,0,.471-.471V8.58h1.147a.82.82,0,0,0,.552-1.427Z"/><path class="a" d="M13.909,1.335h-3.16l3.63,3.3V1.806A.471.471,0,0,0,13.909,1.335Z"/></g></g></svg>