<svg xmlns="http://www.w3.org/2000/svg" xmlns:xlink="http://www.w3.org/1999/xlink" width="16" height="16" viewBox="0 0 16 16"><defs><style>.a{fill:url(#a);}.b{clip-path:url(#b);}</style><linearGradient id="a" x1="0.5" y1="-0.481" x2="0.5" y2="1.869" gradientUnits="objectBoundingBox"><stop offset="0" stop-color="#ff9f0a"/><stop offset="1" stop-color="#ffb340"/></linearGradient><clipPath id="b"><rect class="a" width="16" height="16" transform="translate(16 12)"/></clipPath></defs><g class="b" transform="translate(-16 -12)"><g transform="translate(16 12)"><path class="a" d="M14.432,4.547H1.568A1.572,1.572,0,0,0,0,6.119v2.76a.469.469,0,0,0,.355.456l5.8,1.449V9.451A.938.938,0,0,1,7.1,8.512H8.9a.938.938,0,0,1,.938.939v1.333l5.8-1.449A.469.469,0,0,0,16,8.879V6.119a1.572,1.572,0,0,0-1.568-1.572Z"/><path class="a" d="M9.84,12.066a.939.939,0,0,1-.4.771l-.9.627a.937.937,0,0,1-1.068,0l-.9-.627a.939.939,0,0,1-.4-.771V11.75L.625,10.369v4.06A1.571,1.571,0,0,0,2.193,16H13.807a1.571,1.571,0,0,0,1.568-1.571v-4.06L9.84,11.75Z"/><path class="a" d="M8.9,12.066V9.45H7.1v2.616l.9.627Z"/><path class="a" d="M5.909,3.2a1.141,1.141,0,0,0-.662-1.035A1.353,1.353,0,0,1,6.591.939H9.635a1.353,1.353,0,0,1,1.343,1.223A1.141,1.141,0,0,0,10.316,3.2v.38H12.59V3.2a1.141,1.141,0,0,0-.672-1.04A2.292,2.292,0,0,0,9.635,0H6.591A2.292,2.292,0,0,0,4.307,2.157,1.141,1.141,0,0,0,3.635,3.2v.38H5.909Z"/></g></g></svg>