<svg xmlns="http://www.w3.org/2000/svg" xmlns:xlink="http://www.w3.org/1999/xlink" width="14" height="14" viewBox="0 0 14 14"><defs><style>.a{fill:#fff;stroke:#09c;}.b{clip-path:url(#a);}</style><clipPath id="a"><rect class="a" width="14" height="14" transform="translate(460 226)"/></clipPath></defs><g class="b" transform="translate(-460 -226)"><g transform="translate(461.188 227.069)"><g transform="translate(0 0.7)"><circle cx="1.86" cy="1.86" r="1.86" transform="translate(3.952 3.953)"/><path d="M4.069.7,3.023,1.862H1.163A1.166,1.166,0,0,0,0,3.025V10a1.166,1.166,0,0,0,1.163,1.162h9.3A1.166,1.166,0,0,0,11.625,10V3.025a1.166,1.166,0,0,0-1.162-1.163H8.6L7.556.7ZM5.813,9.419A2.906,2.906,0,1,1,8.719,6.513,2.878,2.878,0,0,1,5.813,9.419Z" transform="translate(0 -0.7)"/></g></g></g></svg>