<svg xmlns="http://www.w3.org/2000/svg" xmlns:xlink="http://www.w3.org/1999/xlink" width="16" height="16" viewBox="0 0 16 16">
  <defs>
    <clipPath id="clip-path">
      <rect id="Rectangle_2490" data-name="Rectangle 2490" width="16" height="16" transform="translate(260 162)" fill="#fff" stroke="#707070" stroke-width="1"/>
    </clipPath>
  </defs>
  <g id="Mask_Group_264" data-name="Mask Group 264" transform="translate(-260 -162)" clip-path="url(#clip-path)">
    <path id="XMLID_651_" d="M14.174,8.537a.4.4,0,0,0-.3-.133H12.547a.4.4,0,0,0-.362-.575H10.9a.4.4,0,0,0-.362.575H9.21a.4.4,0,0,0-.4.444l.456,4.293a.4.4,0,0,0,.4.359H13.42a.4.4,0,0,0,.4-.359l.456-4.293A.4.4,0,0,0,14.174,8.537ZM13.059,12.7H10.026l-.37-3.491H13.43Zm-2.68-2.312a.4.4,0,1,1,.8-.076l.142,1.49a.4.4,0,0,1-.362.437l-.038,0a.4.4,0,0,1-.4-.363ZM11.766,11.8l.142-1.49a.4.4,0,1,1,.8.076l-.142,1.49a.4.4,0,0,1-.4.363l-.038,0A.4.4,0,0,1,11.766,11.8Z" transform="translate(260 163)" fill="#fff"/>
    <g id="Group_49024" data-name="Group 49024" transform="translate(261 163)">
      <g id="Group_49022" data-name="Group 49022">
        <path id="Path_26861" data-name="Path 26861" d="M12.988,2.943a.492.492,0,0,0-.02-.1A.988.988,0,0,0,12,2H1a.988.988,0,0,0-.968.843.492.492,0,0,0-.02.1A.578.578,0,0,0,0,3v7a.578.578,0,0,0,.012.057.516.516,0,0,0,.02.1A.988.988,0,0,0,1,11H5.5a.5.5,0,0,0,0-1H1.33L5.154,7.115,6.2,7.9a.5.5,0,0,0,.6,0l1.046-.785.55.459a.5.5,0,1,0,.6-.8l-.319-.285L12,4V5.5a.5.5,0,1,0,1,0V3A.578.578,0,0,0,12.988,2.943ZM1,9V4L4.322,6.491ZM6.5,6.875,1.333,3H11.667Z" fill="#fff"/>
      </g>
    </g>
  </g>
</svg>
