<svg xmlns="http://www.w3.org/2000/svg" xmlns:xlink="http://www.w3.org/1999/xlink" width="16" height="16" viewBox="0 0 16 16">
  <defs>
    <clipPath id="clip-path">
      <rect id="Rectangle_2519" data-name="Rectangle 2519" width="16" height="16" transform="translate(972 60)" fill="#fff" stroke="#707070" stroke-width="1"/>
    </clipPath>
  </defs>
  <g id="Mask_Group_271" data-name="Mask Group 271" transform="translate(-972 -60)" clip-path="url(#clip-path)">
    <g id="user" transform="translate(973.813 61.813)">
      <g id="Group_49161" data-name="Group 49161" transform="translate(-0.031 -0.031)">
        <path id="Path_27185" data-name="Path 27185" d="M6.413,12.4l.066,0,.086,0,.059,0,.091-.007.051,0,.1-.01.038,0,.109-.013h.01a6.193,6.193,0,0,0,3.244-1.468l.388-.327-.022-.019a6.218,6.218,0,1,0-8.888,0l-.022.019.388.327a6.2,6.2,0,0,0,2.449,1.308h0l.128.033h0a6.183,6.183,0,0,0,.649.123l.021,0,.1.012.045.005.092.009.056.005.086.007.064,0,.082,0,.071,0,.077,0h.29Zm-.226-11.4A5.181,5.181,0,0,1,9.814,9.887L8.132,8.969a.912.912,0,0,1-.388-.607A3.111,3.111,0,0,0,8.777,6.034q0-2.1,0-2.115a2.281,2.281,0,0,0-.219-1.163A2.407,2.407,0,0,0,6.187,1.523,2.407,2.407,0,0,0,3.812,2.757,2.309,2.309,0,0,0,3.6,3.951V6.034A3.111,3.111,0,0,0,4.629,8.362a.911.911,0,0,1-.387.607L2.56,9.887A5.181,5.181,0,0,1,6.187,1.005Zm2.186,9.881q-.114.053-.231.1l-.016.007-.074.029-.017.006-.147.053-.011,0-.071.024-.028.009q-.111.036-.223.066l-.032.009-.069.018-.027.007-.127.03-.035.008L7.2,11.27l-.039.008-.114.02L7,11.3l-.064.01-.048.007-.061.008-.094.011-.057.005-.058.005-.055,0-.09.006-.056,0-.071,0h-.32l-.075,0-.041,0-.1-.007-.05,0-.065-.006-.051,0-.1-.011-.054-.007-.057-.008-.057-.009-.061-.01-.09-.016-.05-.01-.061-.013-.046-.01-.107-.025-.042-.01L4.854,11.2l-.04-.011q-.108-.03-.215-.064l-.034-.011L4.5,11.087l-.021-.008-.133-.049-.023-.009-.071-.028-.02-.008q-.115-.047-.227-.1l-.01,0a5.163,5.163,0,0,1-.546-.3l1.292-.705a1.912,1.912,0,0,0,.93-1.567V7.847l-.222-.155-.026-.02a2.067,2.067,0,0,1-.788-1.638V3.923l-.005-.08a1.283,1.283,0,0,1,.119-.636c.2-.4.617-.649,1.441-.649s1.246.246,1.441.649a1.293,1.293,0,0,1,.118.647l0,.069V6.034a2.066,2.066,0,0,1-.788,1.638l-.021.016L6.7,7.842v.47a1.913,1.913,0,0,0,.931,1.567l1.292.705a5.162,5.162,0,0,1-.547.3Z" transform="translate(0.031 0.031)"/>
      </g>
    </g>
  </g>
</svg>
