<svg xmlns="http://www.w3.org/2000/svg" xmlns:xlink="http://www.w3.org/1999/xlink" width="16" height="16" viewBox="0 0 16 16">
  <defs>
    <clipPath id="clip-path">
      <rect id="Rectangle_2489" data-name="Rectangle 2489" width="16" height="16" transform="translate(1305 240)" fill="#fff" stroke="#707070" stroke-width="1"/>
    </clipPath>
  </defs>
  <g id="Mask_Group_263" data-name="Mask Group 263" transform="translate(-1305 -240)" clip-path="url(#clip-path)">
    <g id="email" transform="translate(1305 240)">
      <g id="Group_49021" data-name="Group 49021">
        <g id="Group_49020" data-name="Group 49020">
          <path id="Path_26862" data-name="Path 26862" d="M6.721,12.906,7.738,10.77s.743-.6.867-.679,1.089-.371,1.2-.413,2.5-.136,2.5-.136l.441-.231V7.756l2.283,2.861-2.553,2.666V11.414H9.362l-.757.369-.483.282Z" fill="#fff"/>
          <path id="Path_26860" data-name="Path 26860" d="M15.854,10.147l-3-3A.5.5,0,0,0,12,7.5V9H10.5A4.505,4.505,0,0,0,6,13.5a.5.5,0,0,0,.854.354l.24-.24A5.471,5.471,0,0,1,10.99,12H12v1.5a.5.5,0,0,0,.309.462A.489.489,0,0,0,12.5,14a.5.5,0,0,0,.354-.146l3-3A.5.5,0,0,0,15.854,10.147ZM13,12.293V11.5a.5.5,0,0,0-.5-.5H10.99a6.467,6.467,0,0,0-3.728,1.17A3.507,3.507,0,0,1,10.5,10h2a.5.5,0,0,0,.5-.5V8.707L14.793,10.5Z" fill="#fff"/>
        </g>
      </g>
      <g id="Group_49023" data-name="Group 49023">
        <g id="Group_49022" data-name="Group 49022">
          <path id="Path_26861" data-name="Path 26861" d="M12.988,2.943a.492.492,0,0,0-.02-.1A.988.988,0,0,0,12,2H1a.988.988,0,0,0-.968.843.492.492,0,0,0-.02.1A.578.578,0,0,0,0,3v7a.578.578,0,0,0,.012.057.516.516,0,0,0,.02.1A.988.988,0,0,0,1,11H5.5a.5.5,0,0,0,0-1H1.33L5.154,7.115,6.2,7.9a.5.5,0,0,0,.6,0l1.046-.785,1.265.955a.5.5,0,1,0,.6-.8L8.678,6.491,12,4V5.5a.5.5,0,1,0,1,0V3A.578.578,0,0,0,12.988,2.943ZM1,9V4L4.322,6.491ZM6.5,6.875,1.333,3H11.667Z" fill="#fff"/>
        </g>
      </g>
    </g>
  </g>
</svg>
