<svg xmlns="http://www.w3.org/2000/svg" xmlns:xlink="http://www.w3.org/1999/xlink" width="16" height="16" viewBox="0 0 16 16">
  <defs>
    <clipPath id="clip-path">
      <rect id="Rectangle_2523" data-name="Rectangle 2523" width="16" height="16" transform="translate(972 118)" fill="#fff" stroke="#707070" stroke-width="1"/>
    </clipPath>
  </defs>
  <g id="Mask_Group_272" data-name="Mask Group 272" transform="translate(-972 -118)" clip-path="url(#clip-path)">
    <g id="logout_1_" data-name="logout (1)" transform="translate(976.062 120.062)">
      <g id="Group_49163" data-name="Group 49163" transform="translate(-0.031 -0.031)">
        <g id="Group_49162" data-name="Group 49162">
          <path id="Path_27186" data-name="Path 27186" d="M14.163,6.94l.013-.018.016-.021.013-.022.012-.02.011-.023.01-.022.008-.022c0-.008.006-.016.008-.024s0-.015.006-.023,0-.016.006-.025,0-.018,0-.026,0-.014,0-.022a.5.5,0,0,0,0-.1c0-.007,0-.014,0-.022s0-.018,0-.026,0-.016-.006-.025,0-.015-.006-.023-.005-.016-.008-.024l-.008-.022-.01-.021-.011-.023-.012-.02-.013-.022-.016-.021-.013-.018c-.01-.013-.021-.025-.033-.036h0L12.638,4.781a.5.5,0,0,0-.7.7l.643.643H9.8a.5.5,0,0,0,0,.995h2.778l-.643.643a.5.5,0,0,0,.7.7L14.13,6.977h0C14.142,6.965,14.153,6.953,14.163,6.94Z" transform="translate(-2.339 -1.154)"/>
          <path id="Path_27187" data-name="Path 27187" d="M8.425,6.932a.5.5,0,0,0-.5.5V9.916H5.938V1.959h0a.5.5,0,0,0-.354-.476L3.856.964H7.927V3.451a.5.5,0,0,0,.995,0V.466a.5.5,0,0,0-.5-.5H.467l-.044,0A.476.476,0,0,0-.008.317c0,.011-.007.023-.009.034v0q0,.018-.007.036V.4c0,.011,0,.022,0,.034a.532.532,0,0,0,0,.055v9.929a.5.5,0,0,0,.4.488l4.974.995a.5.5,0,0,0,.595-.488v-.5H8.425a.5.5,0,0,0,.5-.5V7.43A.5.5,0,0,0,8.425,6.932ZM4.943,10.8l-3.979-.8V1.135L4.943,2.329V10.8Z" transform="translate(0.031 0.031)"/>
        </g>
      </g>
    </g>
  </g>
</svg>
