<svg xmlns="http://www.w3.org/2000/svg" width="22" height="14" viewBox="0 0 22 14">
  <g id="img-flag-Englsh" transform="translate(0 -85.33)">
    <rect id="Rectangle_2398" data-name="Rectangle 2398" width="22" height="14" transform="translate(0 85.33)" fill="#f0f0f0"/>
    <path id="Path_26305" data-name="Path 26305" d="M9.625,99.33h2.75V93.642H22V91.017H12.375V85.33H9.625v5.687H0v2.625H9.625Z" transform="translate(0 0)" fill="#d80027"/>
    <g id="Group_48821" data-name="Group 48821" transform="translate(0 85.33)">
      <path id="Path_26306" data-name="Path 26306" d="M398.891,318.195l-5.106-2.837v2.837Z" transform="translate(-393.785 -313.387)" fill="#0052b4"/>
      <path id="Path_26307" data-name="Path 26307" d="M320.306,320.165l-8.654-4.807v1.359l6.206,3.448Z" transform="translate(-311.652 -315.358)" fill="#0052b4"/>
      <path id="Path_26308" data-name="Path 26308" d="M311.652,345,318,348.525V345Z" transform="translate(-309.347 -344.998)" fill="#0052b4"/>
    </g>
    <path id="Path_26309" data-name="Path 26309" d="M320.306,320.165l-8.654-4.807v1.359l6.206,3.448Z" transform="translate(-311.652 -230.028)" fill="#f0f0f0"/>
    <path id="Path_26310" data-name="Path 26310" d="M320.306,320.165l-8.654-4.807v1.359l6.206,3.448Z" transform="translate(-311.652 -230.028)" fill="#d80027"/>
    <g id="Group_48822" data-name="Group 48822" transform="translate(13.347 85.33)">
      <path id="Path_26311" data-name="Path 26311" d="M0,317.524l3.9-2.168v2.168Z" transform="translate(4.751 -312.716)" fill="#0052b4"/>
      <path id="Path_26312" data-name="Path 26312" d="M25.491,333.706v-4.2h7.552Z" transform="translate(-25.491 -329.51)" fill="#0052b4"/>
    </g>
    <path id="Path_26313" data-name="Path 26313" d="M2.447,320.165l6.206-3.448v-1.359h0L0,320.165Z" transform="translate(13.347 -230.028)" fill="#d80027"/>
    <g id="Group_48823" data-name="Group 48823" transform="translate(13.347 94.523)">
      <path id="Path_26314" data-name="Path 26314" d="M0,130.958l5.106,2.837v-2.837Z" transform="translate(3.548 -130.958)" fill="#0052b4"/>
      <path id="Path_26315" data-name="Path 26315" d="M0,85.33l8.653,4.807V88.778L2.447,85.33Z" transform="translate(0 -85.33)" fill="#0052b4"/>
      <path id="Path_26316" data-name="Path 26316" d="M59.714,88.857,53.366,85.33v3.527Z" transform="translate(-53.366 -84.05)" fill="#0052b4"/>
    </g>
    <path id="Path_26317" data-name="Path 26317" d="M0,85.33l8.653,4.807V88.778L2.447,85.33Z" transform="translate(13.347 9.193)" fill="#f0f0f0"/>
    <path id="Path_26318" data-name="Path 26318" d="M0,85.33l8.653,4.807V88.778L2.447,85.33Z" transform="translate(13.347 9.193)" fill="#d80027"/>
    <g id="Group_48824" data-name="Group 48824" transform="translate(0 94.522)">
      <path id="Path_26319" data-name="Path 26319" d="M425.561,146.446l-3.9,2.168v-2.168Z" transform="translate(-421.659 -146.446)" fill="#0052b4"/>
      <path id="Path_26320" data-name="Path 26320" d="M319.2,85.331v4.2h-7.552Z" transform="translate(-310.551 -84.72)" fill="#0052b4"/>
    </g>
    <path id="Path_26321" data-name="Path 26321" d="M317.858,85.33l-6.206,3.448v1.359h0l8.654-4.807Z" transform="translate(-311.652 9.193)" fill="#d80027"/>
  </g>
</svg>
