<svg id="Group_48746" data-name="Group 48746" xmlns="http://www.w3.org/2000/svg" width="12.8" height="16" viewBox="0 0 12.8 16">
  <path id="Path_26270" data-name="Path 26270" d="M130.088,205.317h7.474a1.161,1.161,0,0,0,1.155-1.165v-9.206h-9.784v9.206A1.161,1.161,0,0,0,130.088,205.317Zm5.614-7.961a.385.385,0,1,1,.77,0v4.78a.385.385,0,1,1-.77,0Zm-4.308,0a.385.385,0,1,1,.77,0v4.78a.385.385,0,1,1-.77,0Z" transform="translate(-127.425 -189.317)" fill="#09c"/>
  <path id="Path_26271" data-name="Path 26271" d="M102.571,53.144a.774.774,0,0,0-.77-.777H98.818v-.813A1.549,1.549,0,0,0,97.278,50H95.064a1.549,1.549,0,0,0-1.54,1.553v.813H90.541a.774.774,0,0,0-.77.777v1.709h12.8V53.144Zm-4.523-.777H94.294v-.813a.774.774,0,0,1,.77-.777h2.213a.774.774,0,0,1,.77.777Z" transform="translate(-89.771 -50)" fill="#09c"/>
</svg>
