<svg xmlns="http://www.w3.org/2000/svg" xmlns:xlink="http://www.w3.org/1999/xlink" width="16" height="16" viewBox="0 0 16 16">
  <defs>
    <clipPath id="clip-path">
      <rect id="Rectangle_2337" data-name="Rectangle 2337" width="16" height="16" transform="translate(1148 350)" fill="#969696" stroke="#707070" stroke-width="1"/>
    </clipPath>
  </defs>
  <g id="Mask_Group_211" data-name="Mask Group 211" transform="translate(-1148 -350)" clip-path="url(#clip-path)">
    <g id="lock" transform="translate(1150.013 352.685)">
      <path id="Path_5696" data-name="Path 5696" d="M9.53,3.544H8.644V2.658a2.658,2.658,0,0,0-5.315,0v.886H2.443A.443.443,0,0,0,2,3.987v6.2a.443.443,0,0,0,.443.443H9.53a.443.443,0,0,0,.443-.443v-6.2A.443.443,0,0,0,9.53,3.544ZM6.43,7.892v.967H5.544V7.892a1.329,1.329,0,1,1,.886,0ZM7.758,3.544H4.215V2.658a1.772,1.772,0,1,1,3.544,0Z" fill="#969696"/>
    </g>
  </g>
</svg>
