<svg xmlns="http://www.w3.org/2000/svg" xmlns:xlink="http://www.w3.org/1999/xlink" width="16" height="16" viewBox="0 0 16 16"><defs><style>.a{fill:url(#a);}.b{clip-path:url(#b);}</style><linearGradient id="a" x1="0.5" y1="-0.835" x2="0.5" y2="1" gradientUnits="objectBoundingBox"><stop offset="0" stop-color="#30db5b"/><stop offset="1" stop-color="#30d158"/></linearGradient><clipPath id="b"><rect class="a" width="16" height="16" transform="translate(16 12)"/></clipPath></defs><g class="b" transform="translate(-16 -12)"><g transform="translate(16 12)"><path class="a" d="M13.69,8.541H12.453a3.219,3.219,0,0,1,.2,1.106v4.677a1.379,1.379,0,0,1-.079.462h2.046A1.387,1.387,0,0,0,16,13.4V10.851A2.312,2.312,0,0,0,13.69,8.541Z"/><path class="a" d="M3.352,9.648a3.219,3.219,0,0,1,.2-1.106H2.31A2.312,2.312,0,0,0,0,10.851V13.4a1.387,1.387,0,0,0,1.386,1.386H3.432a1.379,1.379,0,0,1-.079-.462Z"/><path class="a" d="M9.414,7.338H6.586a2.312,2.312,0,0,0-2.31,2.31v4.677a.462.462,0,0,0,.462.462h6.524a.462.462,0,0,0,.462-.462V9.648A2.312,2.312,0,0,0,9.414,7.338Z"/><path class="a" d="M8,1.214a2.777,2.777,0,1,0,2.778,2.778A2.781,2.781,0,0,0,8,1.214Z"/><path class="a" d="M3.122,3.8A2.076,2.076,0,1,0,5.2,5.88,2.08,2.08,0,0,0,3.122,3.8Z"/><path class="a" d="M12.878,3.8A2.077,2.077,0,1,0,14.955,5.88,2.08,2.08,0,0,0,12.878,3.8Z"/></g></g></svg>