<svg xmlns="http://www.w3.org/2000/svg" xmlns:xlink="http://www.w3.org/1999/xlink" width="16" height="16" viewBox="0 0 16 16">
  <defs>
    <clipPath id="clip-path">
      <rect id="Rectangle_1321" data-name="Rectangle 1321" width="16" height="16" transform="translate(14 -95.001) rotate(180)" fill="none"/>
    </clipPath>
  </defs>
  <g id="Group_52_Copy_9" data-name="Group 52 Copy 9" transform="translate(14 -95.001) rotate(180)">
    <g id="Mask_Group_181" data-name="Mask Group 181" clip-path="url(#clip-path)">
      <g id="_24px_eye" data-name="24px_eye" transform="translate(-2 -111.001)">
        <path id="Path_5475" data-name="Path 5475" d="M15.9,7.645c-.128-.2-3.184-4.979-7.9-4.979S.23,7.442.1,7.645a.667.667,0,0,0,0,.709c.128.2,3.184,4.979,7.9,4.979s7.77-4.775,7.9-4.979a.667.667,0,0,0,0-.709ZM8,12C4.709,12,2.242,9.038,1.479,8a11.121,11.121,0,0,1,3.91-3.379,3.3,3.3,0,0,0-.722,2.046,3.333,3.333,0,1,0,5.949-2.041A11.194,11.194,0,0,1,14.521,8C13.76,9.04,11.3,12,8,12Z" transform="translate(16 16) rotate(180)" fill="#c1c1c1"/>
      </g>
    </g>
  </g>
</svg>
