<svg xmlns="http://www.w3.org/2000/svg" xmlns:xlink="http://www.w3.org/1999/xlink" width="16" height="16" viewBox="0 0 16 16"><defs><style>.a{fill:url(#a);}.b{clip-path:url(#b);}</style><linearGradient id="a" x1="0.5" x2="0.5" y2="1" gradientUnits="objectBoundingBox"><stop offset="0" stop-color="#da8fff"/><stop offset="1" stop-color="#bf5af2"/></linearGradient><clipPath id="b"><rect class="a" width="16" height="16" transform="translate(16 12)"/></clipPath></defs><g class="b" transform="translate(-16 -12)"><g transform="translate(16 12)"><path class="a" d="M15.787.213A.727.727,0,0,0,15.273,0H.727A.727.727,0,0,0,0,.728V12.364a.727.727,0,0,0,.727.727h7.03v2.182a.727.727,0,0,0,.957.69l1.225-.408,1.225.408a.727.727,0,0,0,.957-.69V13.091h3.152A.727.727,0,0,0,16,12.364V.727A.727.727,0,0,0,15.787.213ZM5.091,7.758H3.636a.727.727,0,0,1,0-1.455H5.091a.727.727,0,0,1,0,1.455ZM12.1,11.216a2.846,2.846,0,0,1-.7.616,2.778,2.778,0,0,1-.69.3l-.037.011a2.778,2.778,0,0,1-1.455,0l-.037-.011a2.776,2.776,0,0,1-.69-.3,2.846,2.846,0,0,1-.7-.616,2.788,2.788,0,1,1,4.318,0Zm.265-6.852H3.636a.727.727,0,1,1,0-1.455h8.727a.727.727,0,1,1,0,1.455Z"/></g></g></svg>